<?xml version="1.0" encoding="UTF-8" standalone="no"?>
<!-- Created with Inkscape (http://www.inkscape.org/) -->

<svg
   width="47.889591mm"
   height="45.326073mm"
   viewBox="0 0 47.889591 45.326073"
   version="1.1"
   id="svg1"
   xml:space="preserve"
   inkscape:version="1.3 (0e150ed6c4, 2023-07-21)"
   sodipodi:docname="aicrowdFinal.svg"
   xmlns:inkscape="http://www.inkscape.org/namespaces/inkscape"
   xmlns:sodipodi="http://sodipodi.sourceforge.net/DTD/sodipodi-0.dtd"
   xmlns="http://www.w3.org/2000/svg"
   xmlns:svg="http://www.w3.org/2000/svg"><sodipodi:namedview
     id="namedview1"
     pagecolor="#ffffff"
     bordercolor="#000000"
     borderopacity="0.25"
     inkscape:showpageshadow="2"
     inkscape:pageopacity="0.0"
     inkscape:pagecheckerboard="0"
     inkscape:deskcolor="#d1d1d1"
     inkscape:document-units="mm"
     inkscape:zoom="0.76167929"
     inkscape:cx="169.36262"
     inkscape:cy="254.04393"
     inkscape:window-width="1920"
     inkscape:window-height="1111"
     inkscape:window-x="-9"
     inkscape:window-y="-9"
     inkscape:window-maximized="1"
     inkscape:current-layer="g8" /><defs
     id="defs1" /><g
     inkscape:label="Layer 1"
     inkscape:groupmode="layer"
     id="layer1"
     transform="translate(-87.05333,-103.17392)"><g
       id="g8"
       transform="translate(412.59302,3.5615852)"><path
         style="fill:#000000"
         d="m -305.93284,144.55408 c -3.85179,-1.03581 -7.10644,-4.099 -8.62125,-8.1141 -0.32154,-0.85225 -0.62603,-1.25678 -0.94601,-1.25678 -0.25951,0 -1.99951,0.31339 -3.86666,0.69642 -4.74562,0.97353 -4.63776,0.96061 -5.44532,0.65256 -0.55933,-0.21336 -0.72761,-0.45246 -0.72761,-1.03386 0,-0.70619 0.50753,-1.62267 4.56355,-8.24067 l 1.20885,-1.97244 -1.11333,-1.23829 c -0.61233,-0.68106 -1.49979,-1.96335 -1.97211,-2.84953 -1.0143,-1.90301 -1.15564,-1.50393 2.05166,-5.79288 1.32496,-1.77179 2.40887,-2.97547 2.6794,-2.97547 0.28814,0 0.65621,0.4597 1.00626,1.25677 0.30357,0.69122 0.84583,1.73302 1.20502,2.3151 0.54083,0.87645 0.68413,0.97786 0.83387,0.59006 0.10405,-0.26946 -0.0666,-1.04331 -0.40187,-1.82273 -1.102,-2.56169 -0.98758,-6.71069 0.2657,-9.63448 0.74136,-1.72954 2.76741,-3.76763 4.62196,-4.64946 1.74874,-0.831508 2.25081,-0.912158 2.72521,-0.43776 0.5559,0.5559 0.34639,1.25047 -0.72912,2.41727 -1.79113,1.94315 -2.73518,5.01538 -2.28255,7.42812 l 0.17907,0.95453 0.97974,-0.77854 c 0.53885,-0.4282 2.01691,-1.27076 3.28458,-1.87237 1.75118,-0.83107 2.6251,-1.44424 3.63802,-2.55253 0.73325,-0.80229 1.33362,-1.59794 1.33416,-1.76812 5.5e-4,-0.17017 0.25081,0.10732 0.55615,0.61664 1.01254,1.68901 1.92882,2.41999 4.86682,3.88265 1.60073,0.79691 3.16919,1.69025 3.48546,1.98521 l 0.57504,0.53629 0.1857,-1.23833 c 0.40734,-2.71632 -0.37325,-5.00678 -2.48186,-7.28249 -1.47721,-1.59426 -1.57864,-1.86769 -0.93255,-2.513778 0.83611,-0.8361 3.96009,0.542378 5.75604,2.539908 2.67067,2.97042 3.50248,8.93094 1.74713,12.51939 -0.3077,0.62901 -0.42274,1.18643 -0.29279,1.41863 0.26938,0.48136 1.06217,-0.57032 2.03995,-2.70607 0.36977,-0.80767 0.82757,-1.46849 1.01735,-1.46849 0.18978,0 1.37383,1.36287 2.63124,3.0286 1.2574,1.66574 2.48598,3.22841 2.73018,3.47261 0.41562,0.41562 0.38782,0.55238 -0.43482,2.13903 -0.48336,0.93226 -1.39969,2.27435 -2.0363,2.98241 -0.63661,0.70806 -1.15747,1.34965 -1.15747,1.42576 0,0.0761 1.25015,2.13603 2.77812,4.57762 2.25035,3.59591 2.77813,4.62858 2.77813,5.43584 0,0.74813 -0.14144,1.07228 -0.56731,1.3002 -0.64441,0.34488 -1.19615,0.28088 -5.73006,-0.66461 -1.79006,-0.37329 -3.45693,-0.67757 -3.70416,-0.67616 -0.30439,0.002 -0.80489,0.75332 -1.55025,2.32801 -1.81543,3.83534 -4.56544,6.16742 -8.3149,7.05122 -2.13194,0.50253 -6.52795,0.49683 -8.41606,-0.0109 z m 8.77806,-5.15088 c 1.78363,-0.58811 2.57134,-1.27911 2.57134,-2.25562 0,-1.12193 -0.86274,-1.28519 -2.76656,-0.52354 -2.14381,0.85766 -5.09741,0.9171 -7.2876,0.14666 -1.85517,-0.65258 -2.55891,-0.6568 -2.90111,-0.0174 -0.43992,0.82199 -0.31855,1.56344 0.32494,1.98507 1.90127,1.24576 7.22917,1.5979 10.05899,0.66482 z m -8.80917,-6.99691 c 0.6168,-0.21762 1.52148,-0.7469 2.01041,-1.17619 1.61896,-1.42147 3.84184,-1.54132 5.38087,-0.29013 2.68969,2.18665 6.10441,2.08735 8.43709,-0.24533 1.05965,-1.05965 1.83394,-2.53233 2.05357,-3.90587 l 0.16545,-1.03466 -1.41521,-0.30269 c -3.37523,-0.7219 -5.10233,-0.92777 -9.08813,-1.08327 -5.04368,-0.19677 -8.47518,0.02 -12.50156,0.78978 l -2.97656,0.56906 0.003,1.09009 c 0.004,1.48748 1.05926,3.64215 2.21737,4.52548 1.8525,1.41297 3.73238,1.76293 5.71412,1.06373 z m -2.95038,-3.33809 c -1.55771,-0.54935 -2.07084,-1.14505 -1.48768,-1.72705 0.27723,-0.27669 0.70893,-0.22719 2.32482,0.26652 1.75582,0.53647 1.98438,0.68006 1.98438,1.24665 0,0.84804 -0.84229,0.91189 -2.82152,0.21388 z m 12.04532,0.16188 c -0.0838,-0.21828 -0.0923,-0.5532 -0.019,-0.74426 0.14418,-0.37574 3.85522,-1.5587 4.20725,-1.34113 0.11769,0.0727 0.21398,0.41194 0.21398,0.7538 0,0.52588 -0.25225,0.70674 -1.63888,1.17501 -1.94434,0.65661 -2.55813,0.69139 -2.76336,0.15658 z"
         id="path12"
         sodipodi:nodetypes="ssssssscssssssssssssscssssssscssssssssssssssssscsssssssssssscsssscssscssccssssssssssss" /></g></g></svg>
