<?xml version="1.0" encoding="UTF-8" standalone="no"?>
<!-- Created with Inkscape (http://www.inkscape.org/) -->

<svg
   width="210mm"
   height="297mm"
   viewBox="0 0 210 297"
   version="1.1"
   id="svg1"
   xml:space="preserve"
   inkscape:version="1.3 (0e150ed6c4, 2023-07-21)"
   sodipodi:docname="archiveXAll.svg"
   xmlns:inkscape="http://www.inkscape.org/namespaces/inkscape"
   xmlns:sodipodi="http://sodipodi.sourceforge.net/DTD/sodipodi-0.dtd"
   xmlns="http://www.w3.org/2000/svg"
   xmlns:svg="http://www.w3.org/2000/svg"><sodipodi:namedview
     id="namedview1"
     pagecolor="#ffffff"
     bordercolor="#000000"
     borderopacity="0.25"
     inkscape:showpageshadow="2"
     inkscape:pageopacity="0.0"
     inkscape:pagecheckerboard="0"
     inkscape:deskcolor="#d1d1d1"
     inkscape:document-units="mm"
     inkscape:zoom="1.0771772"
     inkscape:cx="295.68023"
     inkscape:cy="576.04265"
     inkscape:window-width="1920"
     inkscape:window-height="1111"
     inkscape:window-x="-9"
     inkscape:window-y="-9"
     inkscape:window-maximized="1"
     inkscape:current-layer="g1" /><defs
     id="defs1" /><g
     inkscape:label="Layer 1"
     inkscape:groupmode="layer"
     id="layer1"><g
       id="g1"
       transform="matrix(0.26458333,0,0,0.26458333,25.337582,133.75617)"><path
         d="m 134.811,201.80729 24.36,-29.89 c 1.492,-1.989 2.2,-3.03 1.492,-4.723 a 5.142,5.142 0 0 0 -4.481,-3.161 v 0 a 4.024,4.024 0 0 0 -3.008,1.108 l -26.139,28.26 z"
         id="path1" /><path
         d="m 168.108,257.64829 -32.363,-38.283 -0.972,1.033 -7.789,-9.214 -7.743,-9.357 -4.695,5.076 a 4.769,4.769 0 0 0 0.015,6.53 l 47.786,51.074 a 3.913,3.913 0 0 0 3.137,1.192 4.394,4.394 0 0 0 4.027,-2.818 c 0.724,-1.73 -0.076,-3.441 -1.403,-5.233 z"
         id="path2" /><path
         d="m 121.05,220.39429 6.052,6.485 -26.553,28.128 a 2.98,2.98 0 0 1 -2.275,1.194 3.449,3.449 0 0 1 -3.241,-2.144 c -0.513,-1.231 0.166,-3.15 1.122,-4.168 l 0.023,-0.024 0.021,-0.026 24.851,-29.448 m -0.047,-1.882 -25.76,30.524 c -1.286,1.372 -2.084,3.777 -1.365,5.5 a 4.705,4.705 0 0 0 4.4,2.914 4.191,4.191 0 0 0 3.161,-1.563 l 27.382,-29.007 -7.814,-8.372 z"
         id="path3" /><path
         d="m 90.373,156.82729 h 0.077 c 1,0.024 2.236,1.245 2.589,1.669 l 0.023,0.028 0.024,0.026 46.664,50.433 a 3.173,3.173 0 0 1 -0.034,4.336 l -4.893,5.2 -6.876,-8.134 -39.46,-47.678 c -1.508,-2.166 -1.617,-2.836 -1.191,-3.858 a 3.353,3.353 0 0 1 3.077,-2.02 m 0,-1.25 a 4.606,4.606 0 0 0 -4.231,2.789 c -0.705,1.692 -0.2,2.88 1.349,5.1 l 39.493,47.722 7.789,9.214 5.853,-6.221 a 4.417,4.417 0 0 0 0.042,-6.042 l -46.664,-50.434 c 0,0 -1.713,-2.08 -3.524,-2.124 z"
         id="path8" /><g
         id="tiny_-_red"
         data-name="tiny - red"
         transform="translate(288.44792,-84.989495)"><path
           d="m 553.264,283.782 29.888,-27.1 a 5.163,5.163 0 0 1 3.265,-1.515 4.168,4.168 0 0 1 0.544,0.037 6.622,6.622 0 0 1 4.18,3.251 c 0.612,1.507 0.268,2.693 -1.416,4.88 l -26.858,31.724 z"
           transform="translate(-526.086,-245.559)"
           fill="#ffffff"
           id="path1-2" /><path
           d="m 586.417,255.912 a 3.534,3.534 0 0 1 0.448,0.03 5.923,5.923 0 0 1 3.581,2.791 c 0.454,1.116 0.314,2.023 -1.315,4.14 l -26.266,31.027 -8.558,-10.047 29.349,-26.616 a 4.4,4.4 0 0 1 2.761,-1.321 m 0,-1.5 a 5.767,5.767 0 0 0 -3.689,1.642 l -0.041,0.033 -0.039,0.035 -29.348,26.612 -1.077,0.977 0.943,1.107 8.558,10.046 1.146,1.345 1.141,-1.348 26.266,-31.022 0.023,-0.027 0.021,-0.028 c 1.575,-2.046 2.328,-3.622 1.516,-5.62 a 7.309,7.309 0 0 0 -4.779,-3.713 4.891,4.891 0 0 0 -0.64,-0.043 z"
           transform="translate(-526.086,-245.559)"
           id="path2-2" /><path
           d="m 577.758,289.555 -43.7,-41.923 c 0,0 -1.671,-2.029 -3.437,-2.071 a 4.49,4.49 0 0 0 -4.23,2.718 c -0.688,1.651 -0.194,2.809 1.315,4.97 l 34.775,42.2 h -0.017 l -25.884,31.793 c -1.255,1.337 -2.032,3.683 -1.331,5.367 a 4.587,4.587 0 0 0 4.287,2.841 4.087,4.087 0 0 0 3.082,-1.523 l 35.1,-32.634 a 7.926,7.926 0 0 0 0.04,-11.738 z"
           transform="translate(-526.086,-245.559)"
           id="path3-6" /><path
           d="M 595.193,345.06 A 4.725,4.725 0 0 1 592,343.741 l -44.508,-42.39 c -3.656,-3.656 -3.48,-8.728 0.424,-12.632 l 5.569,-5.211 9.486,11.158 35.517,42.75 a 4.44,4.44 0 0 1 1.188,4.115 4.85,4.85 0 0 1 -3.22,3.338 4.353,4.353 0 0 1 -1.263,0.191 z"
           transform="translate(-526.086,-245.559)"
           fill="#ffffff"
           id="path4" /><path
           d="m 553.423,284.593 8.977,10.558 35.511,42.749 c 0.873,1.093 1.419,2.186 1.047,3.418 a 4.092,4.092 0 0 1 -2.721,2.837 3.557,3.557 0 0 1 -1.045,0.159 4,4 0 0 1 -2.687,-1.124 L 548.01,300.808 c -3.5,-3.5 -2.971,-8.151 0.436,-11.558 l 4.977,-4.657 m 0.124,-2.17 -1.147,1.077 -4.976,4.656 c -4.192,4.191 -4.372,9.816 -0.473,13.714 l 44.521,42.4 a 5.485,5.485 0 0 0 3.722,1.538 5.1,5.1 0 0 0 1.483,-0.224 5.59,5.59 0 0 0 3.719,-3.838 5.175,5.175 0 0 0 -1.31,-4.788 l -35.53,-42.767 -8.988,-10.571 -1.019,-1.2 z"
           transform="translate(-526.086,-245.559)"
           id="path5" /><path
           d="M 592.074,250.547"
           transform="translate(-526.086,-245.559)"
           fill="#ffffff"
           stroke="#000000"
           stroke-miterlimit="10"
           stroke-width="0.25"
           id="path6" /></g></g></g></svg>
